<svg aria-roledescription="flowchart-v2" role="graphics-document document" viewBox="-8 -7.999998092651367 1183.4013671875 2237.286865234375" style="max-width: 1183.4013671875px;" xmlns="http://www.w3.org/2000/svg" width="100%" id="mermaid-svg-1758988924859-x0llx5fol"><style>#mermaid-svg-1758988924859-x0llx5fol{font-family:"trebuchet ms",verdana,arial,sans-serif;font-size:16px;fill:#616161;}#mermaid-svg-1758988924859-x0llx5fol .error-icon{fill:#f2dede;}#mermaid-svg-1758988924859-x0llx5fol .error-text{fill:#a1260d;stroke:#a1260d;}#mermaid-svg-1758988924859-x0llx5fol .edge-thickness-normal{stroke-width:2px;}#mermaid-svg-1758988924859-x0llx5fol .edge-thickness-thick{stroke-width:3.5px;}#mermaid-svg-1758988924859-x0llx5fol .edge-pattern-solid{stroke-dasharray:0;}#mermaid-svg-1758988924859-x0llx5fol .edge-pattern-dashed{stroke-dasharray:3;}#mermaid-svg-1758988924859-x0llx5fol .edge-pattern-dotted{stroke-dasharray:2;}#mermaid-svg-1758988924859-x0llx5fol .marker{fill:#616161;stroke:#616161;}#mermaid-svg-1758988924859-x0llx5fol .marker.cross{stroke:#616161;}#mermaid-svg-1758988924859-x0llx5fol svg{font-family:"trebuchet ms",verdana,arial,sans-serif;font-size:16px;}#mermaid-svg-1758988924859-x0llx5fol .label{font-family:"trebuchet ms",verdana,arial,sans-serif;color:#616161;}#mermaid-svg-1758988924859-x0llx5fol .cluster-label text{fill:#424242;}#mermaid-svg-1758988924859-x0llx5fol .cluster-label span,#mermaid-svg-1758988924859-x0llx5fol p{color:#424242;}#mermaid-svg-1758988924859-x0llx5fol .label text,#mermaid-svg-1758988924859-x0llx5fol span,#mermaid-svg-1758988924859-x0llx5fol p{fill:#616161;color:#616161;}#mermaid-svg-1758988924859-x0llx5fol .node rect,#mermaid-svg-1758988924859-x0llx5fol .node circle,#mermaid-svg-1758988924859-x0llx5fol .node ellipse,#mermaid-svg-1758988924859-x0llx5fol .node polygon,#mermaid-svg-1758988924859-x0llx5fol .node path{fill:#ffffff;stroke:#919191;stroke-width:1px;}#mermaid-svg-1758988924859-x0llx5fol .flowchart-label text{text-anchor:middle;}#mermaid-svg-1758988924859-x0llx5fol .node .label{text-align:center;}#mermaid-svg-1758988924859-x0llx5fol .node.clickable{cursor:pointer;}#mermaid-svg-1758988924859-x0llx5fol .arrowheadPath{fill:#000000;}#mermaid-svg-1758988924859-x0llx5fol .edgePath .path{stroke:#616161;stroke-width:2.0px;}#mermaid-svg-1758988924859-x0llx5fol .flowchart-link{stroke:#616161;fill:none;}#mermaid-svg-1758988924859-x0llx5fol .edgeLabel{background-color:#ffffff99;text-align:center;}#mermaid-svg-1758988924859-x0llx5fol .edgeLabel rect{opacity:0.5;background-color:#ffffff99;fill:#ffffff99;}#mermaid-svg-1758988924859-x0llx5fol .labelBkg{background-color:rgba(255, 255, 255, 0.5);}#mermaid-svg-1758988924859-x0llx5fol .cluster rect{fill:#e5ebf1;stroke:#d4d4d4;stroke-width:1px;}#mermaid-svg-1758988924859-x0llx5fol .cluster text{fill:#424242;}#mermaid-svg-1758988924859-x0llx5fol .cluster span,#mermaid-svg-1758988924859-x0llx5fol p{color:#424242;}#mermaid-svg-1758988924859-x0llx5fol div.mermaidTooltip{position:absolute;text-align:center;max-width:200px;padding:2px;font-family:"trebuchet ms",verdana,arial,sans-serif;font-size:12px;background:#c4c4c4;border:1px solid #0090f1;border-radius:2px;pointer-events:none;z-index:100;}#mermaid-svg-1758988924859-x0llx5fol .flowchartTitleText{text-anchor:middle;font-size:18px;fill:#616161;}#mermaid-svg-1758988924859-x0llx5fol :root{--mermaid-font-family:"trebuchet ms",verdana,arial,sans-serif;}#mermaid-svg-1758988924859-x0llx5fol .nodeStyle rect{fill:#e1f5fe!important;stroke:#01579b!important;stroke-width:2px!important;}#mermaid-svg-1758988924859-x0llx5fol .nodeStyle polygon{fill:#e1f5fe!important;stroke:#01579b!important;stroke-width:2px!important;}#mermaid-svg-1758988924859-x0llx5fol .nodeStyle ellipse{fill:#e1f5fe!important;stroke:#01579b!important;stroke-width:2px!important;}#mermaid-svg-1758988924859-x0llx5fol .nodeStyle circle{fill:#e1f5fe!important;stroke:#01579b!important;stroke-width:2px!important;}#mermaid-svg-1758988924859-x0llx5fol .nodeStyle path{fill:#e1f5fe!important;stroke:#01579b!important;stroke-width:2px!important;}#mermaid-svg-1758988924859-x0llx5fol .stateStyle rect{fill:#f3e5f5!important;stroke:#4a148c!important;stroke-width:2px!important;}#mermaid-svg-1758988924859-x0llx5fol .stateStyle polygon{fill:#f3e5f5!important;stroke:#4a148c!important;stroke-width:2px!important;}#mermaid-svg-1758988924859-x0llx5fol .stateStyle ellipse{fill:#f3e5f5!important;stroke:#4a148c!important;stroke-width:2px!important;}#mermaid-svg-1758988924859-x0llx5fol .stateStyle circle{fill:#f3e5f5!important;stroke:#4a148c!important;stroke-width:2px!important;}#mermaid-svg-1758988924859-x0llx5fol .stateStyle path{fill:#f3e5f5!important;stroke:#4a148c!important;stroke-width:2px!important;}#mermaid-svg-1758988924859-x0llx5fol .decisionStyle rect{fill:#fff3e0!important;stroke:#e65100!important;stroke-width:2px!important;}#mermaid-svg-1758988924859-x0llx5fol .decisionStyle polygon{fill:#fff3e0!important;stroke:#e65100!important;stroke-width:2px!important;}#mermaid-svg-1758988924859-x0llx5fol .decisionStyle ellipse{fill:#fff3e0!important;stroke:#e65100!important;stroke-width:2px!important;}#mermaid-svg-1758988924859-x0llx5fol .decisionStyle circle{fill:#fff3e0!important;stroke:#e65100!important;stroke-width:2px!important;}#mermaid-svg-1758988924859-x0llx5fol .decisionStyle path{fill:#fff3e0!important;stroke:#e65100!important;stroke-width:2px!important;}#mermaid-svg-1758988924859-x0llx5fol .endStyle rect{fill:#e8f5e8!important;stroke:#1b5e20!important;stroke-width:2px!important;}#mermaid-svg-1758988924859-x0llx5fol .endStyle polygon{fill:#e8f5e8!important;stroke:#1b5e20!important;stroke-width:2px!important;}#mermaid-svg-1758988924859-x0llx5fol .endStyle ellipse{fill:#e8f5e8!important;stroke:#1b5e20!important;stroke-width:2px!important;}#mermaid-svg-1758988924859-x0llx5fol .endStyle circle{fill:#e8f5e8!important;stroke:#1b5e20!important;stroke-width:2px!important;}#mermaid-svg-1758988924859-x0llx5fol .endStyle path{fill:#e8f5e8!important;stroke:#1b5e20!important;stroke-width:2px!important;}</style><g><marker orient="auto" markerHeight="12" markerWidth="12" markerUnits="userSpaceOnUse" refY="5" refX="6" viewBox="0 0 10 10" class="marker flowchart" id="mermaid-svg-1758988924859-x0llx5fol_flowchart-pointEnd"><path style="stroke-width: 1; stroke-dasharray: 1, 0;" class="arrowMarkerPath" d="M 0 0 L 10 5 L 0 10 z"/></marker><marker orient="auto" markerHeight="12" markerWidth="12" markerUnits="userSpaceOnUse" refY="5" refX="4.5" viewBox="0 0 10 10" class="marker flowchart" id="mermaid-svg-1758988924859-x0llx5fol_flowchart-pointStart"><path style="stroke-width: 1; stroke-dasharray: 1, 0;" class="arrowMarkerPath" d="M 0 5 L 10 10 L 10 0 z"/></marker><marker orient="auto" markerHeight="11" markerWidth="11" markerUnits="userSpaceOnUse" refY="5" refX="11" viewBox="0 0 10 10" class="marker flowchart" id="mermaid-svg-1758988924859-x0llx5fol_flowchart-circleEnd"><circle style="stroke-width: 1; stroke-dasharray: 1, 0;" class="arrowMarkerPath" r="5" cy="5" cx="5"/></marker><marker orient="auto" markerHeight="11" markerWidth="11" markerUnits="userSpaceOnUse" refY="5" refX="-1" viewBox="0 0 10 10" class="marker flowchart" id="mermaid-svg-1758988924859-x0llx5fol_flowchart-circleStart"><circle style="stroke-width: 1; stroke-dasharray: 1, 0;" class="arrowMarkerPath" r="5" cy="5" cx="5"/></marker><marker orient="auto" markerHeight="11" markerWidth="11" markerUnits="userSpaceOnUse" refY="5.2" refX="12" viewBox="0 0 11 11" class="marker cross flowchart" id="mermaid-svg-1758988924859-x0llx5fol_flowchart-crossEnd"><path style="stroke-width: 2; stroke-dasharray: 1, 0;" class="arrowMarkerPath" d="M 1,1 l 9,9 M 10,1 l -9,9"/></marker><marker orient="auto" markerHeight="11" markerWidth="11" markerUnits="userSpaceOnUse" refY="5.2" refX="-1" viewBox="0 0 11 11" class="marker cross flowchart" id="mermaid-svg-1758988924859-x0llx5fol_flowchart-crossStart"><path style="stroke-width: 2; stroke-dasharray: 1, 0;" class="arrowMarkerPath" d="M 1,1 l 9,9 M 10,1 l -9,9"/></marker><g class="root"><g class="clusters"/><g class="edgePaths"><path marker-end="url(#mermaid-svg-1758988924859-x0llx5fol_flowchart-pointEnd)" style="fill:none;" class="edge-thickness-normal edge-pattern-solid flowchart-link LS-A LE-B" id="L-A-B-0" d="M888.542,33.286L888.542,37.452C888.542,41.619,888.542,49.952,888.542,57.402C888.542,64.852,888.542,71.419,888.542,74.702L888.542,77.986"/><path marker-end="url(#mermaid-svg-1758988924859-x0llx5fol_flowchart-pointEnd)" style="fill:none;" class="edge-thickness-normal edge-pattern-solid flowchart-link LS-B LE-C" id="L-B-C-0" d="M817.949,108.534L760.281,115.564C702.614,122.594,587.279,136.654,529.682,148.575C472.085,160.495,472.227,170.277,472.297,175.167L472.368,180.058"/><path marker-end="url(#mermaid-svg-1758988924859-x0llx5fol_flowchart-pointEnd)" style="fill:none;" class="edge-thickness-normal edge-pattern-solid flowchart-link LS-C LE-D" id="L-C-D-0" d="M512.176,358.286L519.439,370.515C526.701,382.744,541.225,407.202,548.488,424.239C555.75,441.275,555.75,450.889,555.75,455.696L555.75,460.504"/><path marker-end="url(#mermaid-svg-1758988924859-x0llx5fol_flowchart-pointEnd)" style="fill:none;" class="edge-thickness-normal edge-pattern-solid flowchart-link LS-C LE-E" id="L-C-E-0" d="M413.32,338.894L393.769,354.355C374.217,369.816,335.113,400.739,315.561,425.997C296.009,451.256,296.009,470.851,296.009,490.446C296.009,510.042,296.009,529.637,296.009,547.899C296.009,566.161,296.009,583.089,296.009,600.018C296.009,616.946,296.009,633.875,302.434,647.478C308.859,661.081,321.709,671.359,328.134,676.497L334.559,681.636"/><path marker-end="url(#mermaid-svg-1758988924859-x0llx5fol_flowchart-pointEnd)" style="fill:none;" class="edge-thickness-normal edge-pattern-solid flowchart-link LS-D LE-F" id="L-D-F-0" d="M594.371,515.089L603.289,520.78C612.207,526.47,630.043,537.851,638.961,548.349C647.879,558.846,647.879,568.461,647.879,573.268L647.879,578.075"/><path marker-end="url(#mermaid-svg-1758988924859-x0llx5fol_flowchart-pointEnd)" style="fill:none;" class="edge-thickness-normal edge-pattern-solid flowchart-link LS-F LE-E" id="L-F-E-0" d="M611.033,616.661L598.434,622.351C585.836,628.042,560.639,639.423,529.176,650.559C497.713,661.695,459.983,672.586,441.119,678.031L422.254,683.477"/><path marker-end="url(#mermaid-svg-1758988924859-x0llx5fol_flowchart-pointEnd)" style="fill:none;" class="edge-thickness-normal edge-pattern-solid flowchart-link LS-E LE-G" id="L-E-G-0" d="M323.366,718.232L311.009,723.923C298.652,729.613,273.937,740.994,261.58,751.492C249.223,761.989,249.223,771.604,249.223,776.411L249.223,781.218"/><path marker-end="url(#mermaid-svg-1758988924859-x0llx5fol_flowchart-pointEnd)" style="fill:none;" class="edge-thickness-normal edge-pattern-solid flowchart-link LS-G LE-H" id="L-G-H-0" d="M249.223,819.804L249.223,825.494C249.223,831.185,249.223,842.565,249.223,853.063C249.223,863.561,249.223,873.175,249.223,877.982L249.223,882.789"/><path marker-end="url(#mermaid-svg-1758988924859-x0llx5fol_flowchart-pointEnd)" style="fill:none;" class="edge-thickness-normal edge-pattern-solid flowchart-link LS-H LE-I" id="L-H-I-0" d="M190.698,937.375L177.184,943.065C163.669,948.756,136.641,960.137,123.197,970.718C109.753,981.299,109.894,991.08,109.965,995.971L110.035,1000.861"/><path marker-end="url(#mermaid-svg-1758988924859-x0llx5fol_flowchart-pointEnd)" style="fill:none;" class="edge-thickness-normal edge-pattern-solid flowchart-link LS-I LE-J" id="L-I-J-0" d="M171.876,1163.619L192.427,1179.521C212.978,1195.422,254.08,1227.224,274.631,1247.933C295.182,1268.641,295.182,1278.255,295.182,1283.063L295.182,1287.87"/><path marker-end="url(#mermaid-svg-1758988924859-x0llx5fol_flowchart-pointEnd)" style="fill:none;" class="edge-thickness-normal edge-pattern-solid flowchart-link LS-I LE-K" id="L-I-K-0" d="M80.408,1195.68L76.369,1206.238C72.33,1216.796,64.252,1237.911,60.213,1258.267C56.174,1278.622,56.174,1298.217,56.174,1316.289C56.174,1334.36,56.174,1350.908,56.174,1386.885C56.174,1422.862,56.174,1478.268,56.174,1535.198C56.174,1592.128,56.174,1650.582,56.174,1689.606C56.174,1728.631,56.174,1748.226,56.174,1767.821C56.174,1787.417,56.174,1807.012,56.174,1844.08C56.174,1881.149,56.174,1935.691,56.174,1990.233C56.174,2044.775,56.174,2099.316,145.899,2134.388C235.624,2169.46,415.073,2185.062,504.798,2192.863L594.523,2200.664"/><path marker-end="url(#mermaid-svg-1758988924859-x0llx5fol_flowchart-pointEnd)" style="fill:none;" class="edge-thickness-normal edge-pattern-solid flowchart-link LS-J LE-L" id="L-J-L-0" d="M295.182,1342.455L295.182,1346.622C295.182,1350.789,295.182,1359.122,371.575,1385.531C447.968,1411.941,600.754,1456.426,677.148,1478.669L753.541,1500.912"/><path marker-end="url(#mermaid-svg-1758988924859-x0llx5fol_flowchart-pointEnd)" style="fill:none;" class="edge-thickness-normal edge-pattern-solid flowchart-link LS-L LE-B" id="L-L-B-0" d="M919.656,1444.543L926.919,1431.695C934.183,1418.847,948.71,1393.151,955.973,1372.03C963.237,1350.908,963.237,1334.36,963.237,1316.289C963.237,1298.217,963.237,1278.622,963.237,1244.865C963.237,1211.109,963.237,1163.19,963.237,1115.272C963.237,1067.354,963.237,1019.436,963.237,985.679C963.237,951.923,963.237,932.327,963.237,912.732C963.237,893.137,963.237,873.542,963.237,855.28C963.237,837.018,963.237,820.089,963.237,803.161C963.237,786.232,963.237,769.304,963.237,752.375C963.237,735.446,963.237,718.518,963.237,701.589C963.237,684.661,963.237,667.732,963.237,650.804C963.237,633.875,963.237,616.946,963.237,600.018C963.237,583.089,963.237,566.161,963.237,547.899C963.237,529.637,963.237,510.042,963.237,490.446C963.237,470.851,963.237,451.256,963.237,418.046C963.237,384.836,963.237,338.012,963.237,291.188C963.237,244.363,963.237,197.539,955.598,168.933C947.959,140.327,932.681,129.939,925.042,124.745L917.403,119.551"/><path marker-end="url(#mermaid-svg-1758988924859-x0llx5fol_flowchart-pointEnd)" style="fill:none;" class="edge-thickness-normal edge-pattern-solid flowchart-link LS-L LE-M" id="L-L-M-0" d="M913.153,1630.308L919.262,1643.429C925.372,1656.551,937.59,1682.793,943.7,1700.722C949.809,1718.65,949.809,1728.264,949.809,1733.071L949.809,1737.879"/><path marker-end="url(#mermaid-svg-1758988924859-x0llx5fol_flowchart-pointEnd)" style="fill:none;" class="edge-thickness-normal edge-pattern-solid flowchart-link LS-L LE-K" id="L-L-K-0" d="M758.967,1566.292L677.787,1590.083C596.607,1613.873,434.247,1661.455,353.067,1695.043C271.887,1728.631,271.887,1748.226,271.887,1767.821C271.887,1787.417,271.887,1807.012,271.887,1844.08C271.887,1881.149,271.887,1935.691,271.887,1990.233C271.887,2044.775,271.887,2099.316,325.665,2134.001C379.442,2168.685,486.997,2183.512,540.775,2190.925L594.552,2198.338"/><path marker-end="url(#mermaid-svg-1758988924859-x0llx5fol_flowchart-pointEnd)" style="fill:none;" class="edge-thickness-normal edge-pattern-solid flowchart-link LS-M LE-N" id="L-M-N-0" d="M949.809,1792.464L949.809,1798.155C949.809,1803.845,949.809,1815.226,956.604,1833.467C963.398,1851.708,976.987,1876.809,983.781,1889.359L990.575,1901.909"/><path marker-end="url(#mermaid-svg-1758988924859-x0llx5fol_flowchart-pointEnd)" style="fill:none;" class="edge-thickness-normal edge-pattern-solid flowchart-link LS-N LE-B" id="L-N-B-0" d="M1067.584,1890.415L1070.568,1879.78C1073.552,1869.146,1079.52,1847.876,1082.505,1827.444C1085.489,1807.012,1085.489,1787.417,1085.489,1767.821C1085.489,1748.226,1085.489,1728.631,1085.489,1689.606C1085.489,1650.582,1085.489,1592.128,1085.489,1535.198C1085.489,1478.268,1085.489,1422.862,1085.489,1386.885C1085.489,1350.908,1085.489,1334.36,1085.489,1316.289C1085.489,1298.217,1085.489,1278.622,1085.489,1244.865C1085.489,1211.109,1085.489,1163.19,1085.489,1115.272C1085.489,1067.354,1085.489,1019.436,1085.489,985.679C1085.489,951.923,1085.489,932.327,1085.489,912.732C1085.489,893.137,1085.489,873.542,1085.489,855.28C1085.489,837.018,1085.489,820.089,1085.489,803.161C1085.489,786.232,1085.489,769.304,1085.489,752.375C1085.489,735.446,1085.489,718.518,1085.489,701.589C1085.489,684.661,1085.489,667.732,1085.489,650.804C1085.489,633.875,1085.489,616.946,1085.489,600.018C1085.489,583.089,1085.489,566.161,1085.489,547.899C1085.489,529.637,1085.489,510.042,1085.489,490.446C1085.489,470.851,1085.489,451.256,1085.489,418.046C1085.489,384.836,1085.489,338.012,1085.489,291.188C1085.489,244.363,1085.489,197.539,1064.277,168.657C1043.064,139.774,1000.64,128.835,979.428,123.365L958.215,117.895"/><path marker-end="url(#mermaid-svg-1758988924859-x0llx5fol_flowchart-pointEnd)" style="fill:none;" class="edge-thickness-normal edge-pattern-solid flowchart-link LS-N LE-K" id="L-N-K-0" d="M1038.419,2120.215L1038.335,2125.823C1038.252,2131.43,1038.085,2142.644,979.356,2155.742C920.628,2168.839,803.337,2183.82,744.691,2191.31L686.046,2198.801"/><path marker-end="url(#mermaid-svg-1758988924859-x0llx5fol_flowchart-pointEnd)" style="fill:none;stroke-width:2px;stroke-dasharray:3;" class="edge-thickness-normal edge-pattern-dotted flowchart-link LS-B LE-B1" id="L-B-B1-0" d="M864.065,116.571L855.695,122.262C847.326,127.952,830.587,139.333,822.218,164.779C813.848,190.224,813.848,229.735,813.848,249.49L813.848,269.245"/><path marker-end="url(#mermaid-svg-1758988924859-x0llx5fol_flowchart-pointEnd)" style="fill:none;stroke-width:2px;stroke-dasharray:3;" class="edge-thickness-normal edge-pattern-dotted flowchart-link LS-D LE-D1" id="L-D-D1-0" d="M517.13,515.089L508.211,520.78C499.293,526.47,481.457,537.851,472.539,548.349C463.621,558.846,463.621,568.461,463.621,573.268L463.621,578.075"/><path marker-end="url(#mermaid-svg-1758988924859-x0llx5fol_flowchart-pointEnd)" style="fill:none;stroke-width:2px;stroke-dasharray:3;" class="edge-thickness-normal edge-pattern-dotted flowchart-link LS-F LE-F1" id="L-F-F1-0" d="M660.104,616.661L664.284,622.351C668.464,628.042,676.823,639.423,681.003,649.92C685.183,660.418,685.183,670.032,685.183,674.839L685.183,679.646"/><path marker-end="url(#mermaid-svg-1758988924859-x0llx5fol_flowchart-pointEnd)" style="fill:none;stroke-width:2px;stroke-dasharray:3;" class="edge-thickness-normal edge-pattern-dotted flowchart-link LS-E LE-E1" id="L-E-E1-0" d="M421.91,718.232L443.247,723.923C464.584,729.613,507.257,740.994,528.594,751.492C549.931,761.989,549.931,771.604,549.931,776.411L549.931,781.218"/><path marker-end="url(#mermaid-svg-1758988924859-x0llx5fol_flowchart-pointEnd)" style="fill:none;stroke-width:2px;stroke-dasharray:3;" class="edge-thickness-normal edge-pattern-dotted flowchart-link LS-H LE-H1" id="L-H-H1-0" d="M328.121,935.475L348.96,941.482C369.799,947.489,411.478,959.504,432.317,985.813C453.156,1012.122,453.156,1052.726,453.156,1073.028L453.156,1093.329"/></g><g class="edgeLabels"><g class="edgeLabel"><g transform="translate(0, 0)" class="label"><rect height="0" width="0" ry="0" rx="0"/><text style=""><tspan class="row" x="0" dy="1em" xml:space="preserve"/></text></g></g><g class="edgeLabel"><g transform="translate(0, 0)" class="label"><rect height="0" width="0" ry="0" rx="0"/><text style=""><tspan class="row" x="0" dy="1em" xml:space="preserve"/></text></g></g><g transform="translate(555.7500190734863, 431.660719871521)" class="edgeLabel"><g transform="translate(-59.80803680419922, -9.142857551574707)" class="label"><rect height="18.285869598388672" width="119.57244110107422" ry="0" rx="0"/><text style=""><tspan class="row" x="0" dy="1em" xml:space="preserve">found_docs=true</tspan></text></g></g><g transform="translate(296.0089359283447, 549.2321519851685)" class="edgeLabel"><g transform="translate(-61.91071701049805, -9.142857551574707)" class="label"><rect height="18.285869598388672" width="123.77783966064453" ry="0" rx="0"/><text style=""><tspan class="row" x="0" dy="1em" xml:space="preserve">found_docs=false</tspan></text></g></g><g class="edgeLabel"><g transform="translate(0, 0)" class="label"><rect height="0" width="0" ry="0" rx="0"/><text style=""><tspan class="row" x="0" dy="1em" xml:space="preserve"/></text></g></g><g class="edgeLabel"><g transform="translate(0, 0)" class="label"><rect height="0" width="0" ry="0" rx="0"/><text style=""><tspan class="row" x="0" dy="1em" xml:space="preserve"/></text></g></g><g class="edgeLabel"><g transform="translate(0, 0)" class="label"><rect height="0" width="0" ry="0" rx="0"/><text style=""><tspan class="row" x="0" dy="1em" xml:space="preserve"/></text></g></g><g class="edgeLabel"><g transform="translate(0, 0)" class="label"><rect height="0" width="0" ry="0" rx="0"/><text style=""><tspan class="row" x="0" dy="1em" xml:space="preserve"/></text></g></g><g class="edgeLabel"><g transform="translate(0, 0)" class="label"><rect height="0" width="0" ry="0" rx="0"/><text style=""><tspan class="row" x="0" dy="1em" xml:space="preserve"/></text></g></g><g transform="translate(295.18165016174316, 1259.0268049240112)" class="edgeLabel"><g transform="translate(-40, -9.142857551574707)" class="label"><rect height="18.285869598388672" width="79.97389221191406" ry="0" rx="0"/><text style=""><tspan class="row" x="0" dy="1em" xml:space="preserve">有补充提问</tspan></text></g></g><g transform="translate(56.174110412597656, 1709.0357370376587)" class="edgeLabel"><g transform="translate(-40, -9.142857551574707)" class="label"><rect height="18.285869598388672" width="79.97389221191406" ry="0" rx="0"/><text style=""><tspan class="row" x="0" dy="1em" xml:space="preserve">无补充提问</tspan></text></g></g><g class="edgeLabel"><g transform="translate(0, 0)" class="label"><rect height="0" width="0" ry="0" rx="0"/><text style=""><tspan class="row" x="0" dy="1em" xml:space="preserve"/></text></g></g><g transform="translate(963.2366333007812, 752.3750085830688)" class="edgeLabel"><g transform="translate(-48.000003814697266, -9.142857551574707)" class="label"><rect height="18.285869598388672" width="95.97402954101562" ry="0" rx="0"/><text style=""><tspan class="row" x="0" dy="1em" xml:space="preserve">选择补充提问</tspan></text></g></g><g transform="translate(949.8091773986816, 1709.0357370376587)" class="edgeLabel"><g transform="translate(-48.28571701049805, -9.142857551574707)" class="label"><rect height="18.285869598388672" width="96.54364776611328" ry="0" rx="0"/><text style=""><tspan class="row" x="0" dy="1em" xml:space="preserve">查看历史回顾</tspan></text></g></g><g transform="translate(271.8870086669922, 1826.6071691513062)" class="edgeLabel"><g transform="translate(-40.28571701049805, -9.142857551574707)" class="label"><rect height="18.285869598388672" width="80.54923248291016" ry="0" rx="0"/><text style=""><tspan class="row" x="0" dy="1em" xml:space="preserve">继续新问题</tspan></text></g></g><g class="edgeLabel"><g transform="translate(0, 0)" class="label"><rect height="0" width="0" ry="0" rx="0"/><text style=""><tspan class="row" x="0" dy="1em" xml:space="preserve"/></text></g></g><g transform="translate(1085.4888668060303, 853.946436882019)" class="edgeLabel"><g transform="translate(-48.28571701049805, -9.142857551574707)" class="label"><rect height="18.285869598388672" width="96.54364776611328" ry="0" rx="0"/><text style=""><tspan class="row" x="0" dy="1em" xml:space="preserve">选择历史问题</tspan></text></g></g><g transform="translate(1037.9185523986816, 2153.85830783844)" class="edgeLabel"><g transform="translate(-40.28571701049805, -9.142857551574707)" class="label"><rect height="18.285869598388672" width="80.54923248291016" ry="0" rx="0"/><text style=""><tspan class="row" x="0" dy="1em" xml:space="preserve">返回主流程</tspan></text></g></g><g transform="translate(813.8482437133789, 150.71428394317627)" class="edgeLabel"><g transform="translate(-68, -9.142857551574707)" class="label"><rect height="18.285869598388672" width="135.9475860595703" ry="0" rx="0"/><text style=""><tspan class="row" x="0" dy="1em" xml:space="preserve">query, search_type</tspan></text></g></g><g transform="translate(463.62055015563965, 549.2321519851685)" class="edgeLabel"><g transform="translate(-85.70089721679688, -9.142857551574707)" class="label"><rect height="18.285869598388672" width="171.3407440185547" ry="0" rx="0"/><text style=""><tspan class="row" x="0" dy="1em" xml:space="preserve">reranked_docs, kg_docs</tspan></text></g></g><g transform="translate(685.1830596923828, 650.8035802841187)" class="edgeLabel"><g transform="translate(-54.60714340209961, -9.142857551574707)" class="label"><rect height="18.285869598388672" width="109.17949676513672" ry="0" rx="0"/><text style=""><tspan class="row" x="0" dy="1em" xml:space="preserve">enhanced_docs</tspan></text></g></g><g transform="translate(549.9308223724365, 752.3750085830688)" class="edgeLabel"><g transform="translate(-113.62947082519531, -9.142857551574707)" class="label"><rect height="18.285869598388672" width="227.1804962158203" ry="0" rx="0"/><text style=""><tspan class="row" x="0" dy="1em" xml:space="preserve">answer, conversation_metadata</tspan></text></g></g><g transform="translate(453.1562671661377, 971.5178689956665)" class="edgeLabel"><g transform="translate(-73.21875, -9.142857551574707)" class="label"><rect height="18.285869598388672" width="146.39410400390625" ry="0" rx="0"/><text style=""><tspan class="row" x="0" dy="1em" xml:space="preserve">follow_up_questions</tspan></text></g></g></g><g class="nodes"><g transform="translate(888.5424385070801, 16.64285659790039)" id="flowchart-A-274" class="node default default flowchart-label"><rect height="33.285715103149414" width="111.00000762939453" y="-16.642857551574707" x="-55.500003814697266" ry="0" rx="0" style="" class="basic label-container"/><g transform="translate(0, -9.142857551574707)" style="" class="label"><rect/><text style=""><tspan class="row" x="0" dy="1em" xml:space="preserve">用户输入查询</tspan></text></g></g><g transform="translate(888.5424385070801, 99.92856979370117)" id="flowchart-B-275" class="node default nodeStyle flowchart-label"><rect height="33.285715103149414" width="141.18750762939453" y="-16.642857551574707" x="-70.59375381469727" ry="0" rx="0" style="" class="basic label-container"/><g transform="translate(0, -9.142857551574707)" style="" class="label"><rect/><text style=""><tspan class="row" x="0" dy="1em" xml:space="preserve">retrieve 检索节点</tspan></text></g></g><g transform="translate(471.94421195983887, 291.18750190734863)" id="flowchart-C-277" class="node default decisionStyle flowchart-label"><polygon style="" transform="translate(-106.33035850524902,106.33035850524902)" class="label-container" points="106.33035850524902,0 212.66071701049805,-106.33035850524902 106.33035850524902,-212.66071701049805 0,-106.33035850524902"/><g transform="translate(0, -17.142858505249023)" style="" class="label"><rect/><text style=""><tspan class="row" x="0" dy="1em" xml:space="preserve">route_after_retrieve</tspan><tspan class="row" x="0" dy="1em" xml:space="preserve">路由决策</tspan></text></g></g><g transform="translate(555.7500190734863, 490.4464359283447)" id="flowchart-D-279" class="node default nodeStyle flowchart-label"><rect height="49.28571701049805" width="189.43751525878906" y="-24.642858505249023" x="-94.71875762939453" ry="0" rx="0" style="" class="basic label-container"/><g transform="translate(0, -17.142858505249023)" style="" class="label"><rect/><text style=""><tspan class="row" x="0" dy="1em" xml:space="preserve">human_review_retrieval</tspan><tspan class="row" x="0" dy="1em" xml:space="preserve">人工审核检索</tspan></text></g></g><g transform="translate(359.5067081451416, 701.5892944335938)" id="flowchart-E-281" class="node default nodeStyle flowchart-label"><rect height="33.285715103149414" width="147.75" y="-16.642857551574707" x="-73.875" ry="0" rx="0" style="" class="basic label-container"/><g transform="translate(0, -9.142857551574707)" style="" class="label"><rect/><text style=""><tspan class="row" x="0" dy="1em" xml:space="preserve">generate 生成节点</tspan></text></g></g><g transform="translate(647.879487991333, 600.0178661346436)" id="flowchart-F-283" class="node default nodeStyle flowchart-label"><rect height="33.285715103149414" width="143.8303680419922" y="-16.642857551574707" x="-71.9151840209961" ry="0" rx="0" style="" class="basic label-container"/><g transform="translate(0, -9.142857551574707)" style="" class="label"><rect/><text style=""><tspan class="row" x="0" dy="1em" xml:space="preserve">enhance 增强节点</tspan></text></g></g><g transform="translate(249.2232208251953, 803.160722732544)" id="flowchart-G-287" class="node default nodeStyle flowchart-label"><rect height="33.285715103149414" width="120.6339340209961" y="-16.642857551574707" x="-60.31696701049805" ry="0" rx="0" style="" class="basic label-container"/><g transform="translate(0, -9.142857551574707)" style="" class="label"><rect/><text style=""><tspan class="row" x="0" dy="1em" xml:space="preserve">learn 学习节点</tspan></text></g></g><g transform="translate(249.2232208251953, 912.7321529388428)" id="flowchart-H-289" class="node default nodeStyle flowchart-label"><rect height="49.28571701049805" width="157.79464721679688" y="-24.642858505249023" x="-78.89732360839844" ry="0" rx="0" style="" class="basic label-container"/><g transform="translate(0, -17.142858505249023)" style="" class="label"><rect/><text style=""><tspan class="row" x="0" dy="1em" xml:space="preserve">generate_follow_up</tspan><tspan class="row" x="0" dy="1em" xml:space="preserve">生成补充提问</tspan></text></g></g><g transform="translate(109.61161041259766, 1115.2723369598389)" id="flowchart-I-291" class="node default decisionStyle flowchart-label"><polygon style="" transform="translate(-109.61160850524902,109.61160850524902)" class="label-container" points="109.61160850524902,0 219.22321701049805,-109.61160850524902 109.61160850524902,-219.22321701049805 0,-109.61160850524902"/><g transform="translate(0, -17.142858505249023)" style="" class="label"><rect/><text style=""><tspan class="row" x="0" dy="1em" xml:space="preserve">route_after_generate</tspan><tspan class="row" x="0" dy="1em" xml:space="preserve">路由决策</tspan></text></g></g><g transform="translate(295.18165016174316, 1317.812520980835)" id="flowchart-J-293" class="node default nodeStyle flowchart-label"><rect height="49.28571701049805" width="143.75" y="-24.642858505249023" x="-71.875" ry="0" rx="0" style="" class="basic label-container"/><g transform="translate(0, -17.142858505249023)" style="" class="label"><rect/><text style=""><tspan class="row" x="0" dy="1em" xml:space="preserve">display_follow_up</tspan><tspan class="row" x="0" dy="1em" xml:space="preserve">显示补充提问</tspan></text></g></g><g transform="translate(640.2954864501953, 2204.644021987915)" id="flowchart-K-295" class="node default endStyle flowchart-label"><rect height="33.285715103149414" width="80.9854965209961" y="-16.642857551574707" x="-40.49274826049805" ry="0" rx="0" style="" class="basic label-container"/><g transform="translate(0, -9.142857551574707)" style="" class="label"><rect/><text style=""><tspan class="row" x="0" dy="1em" xml:space="preserve">END 结束</tspan></text></g></g><g transform="translate(867.5678215026855, 1533.674129486084)" id="flowchart-L-297" class="node default decisionStyle flowchart-label"><polygon style="" transform="translate(-141.2187557220459,141.2187557220459)" class="label-container" points="141.2187557220459,0 282.4375114440918,-141.2187557220459 141.2187557220459,-282.4375114440918 0,-141.2187557220459"/><g transform="translate(0, -17.142858505249023)" style="" class="label"><rect/><text style=""><tspan class="row" x="0" dy="1em" xml:space="preserve">route_from_display_follow_up</tspan><tspan class="row" x="0" dy="1em" xml:space="preserve">路由决策</tspan></text></g></g><g transform="translate(949.8091773986816, 1767.8214530944824)" id="flowchart-M-301" class="node default nodeStyle flowchart-label"><rect height="49.28571701049805" width="120.28125762939453" y="-24.642858505249023" x="-60.140628814697266" ry="0" rx="0" style="" class="basic label-container"/><g transform="translate(0, -17.142858505249023)" style="" class="label"><rect/><text style=""><tspan class="row" x="0" dy="1em" xml:space="preserve">history_review</tspan><tspan class="row" x="0" dy="1em" xml:space="preserve">历史回顾</tspan></text></g></g><g transform="translate(1037.9185523986816, 1990.232738494873)" id="flowchart-N-305" class="node default decisionStyle flowchart-label"><polygon style="" transform="translate(-129.48270988464355,129.48270988464355)" class="label-container" points="129.48270988464355,0 258.9654197692871,-129.48270988464355 129.48270988464355,-258.9654197692871 0,-129.48270988464355"/><g transform="translate(0, -17.142858505249023)" style="" class="label"><rect/><text style=""><tspan class="row" x="0" dy="1em" xml:space="preserve">route_from_history_review</tspan><tspan class="row" x="0" dy="1em" xml:space="preserve">路由决策</tspan></text></g></g><g transform="translate(813.8482437133789, 291.18750190734863)" id="flowchart-B1-311" class="node default stateStyle flowchart-label"><rect height="33.285715103149414" width="228.77679443359375" y="-16.642857551574707" x="-114.38839721679688" ry="0" rx="0" style="" class="basic label-container"/><g transform="translate(0, -9.142857551574707)" style="" class="label"><rect/><text style=""><tspan class="row" x="0" dy="1em" xml:space="preserve">RAGState: query, search_type</tspan></text></g></g><g transform="translate(463.62055015563965, 600.0178661346436)" id="flowchart-D1-313" class="node default stateStyle flowchart-label"><rect height="33.285715103149414" width="124.68750762939453" y="-16.642857551574707" x="-62.343753814697266" ry="0" rx="0" style="" class="basic label-container"/><g transform="translate(0, -9.142857551574707)" style="" class="label"><rect/><text style=""><tspan class="row" x="0" dy="1em" xml:space="preserve">RAGState: docs</tspan></text></g></g><g transform="translate(685.1830596923828, 701.5892944335938)" id="flowchart-F1-315" class="node default stateStyle flowchart-label"><rect height="33.285715103149414" width="202.00001525878906" y="-16.642857551574707" x="-101.00000762939453" ry="0" rx="0" style="" class="basic label-container"/><g transform="translate(0, -9.142857551574707)" style="" class="label"><rect/><text style=""><tspan class="row" x="0" dy="1em" xml:space="preserve">RAGState: enhanced_docs</tspan></text></g></g><g transform="translate(549.9308223724365, 803.160722732544)" id="flowchart-E1-317" class="node default stateStyle flowchart-label"><rect height="33.285715103149414" width="220.50001525878906" y="-16.642857551574707" x="-110.25000762939453" ry="0" rx="0" style="" class="basic label-container"/><g transform="translate(0, -9.142857551574707)" style="" class="label"><rect/><text style=""><tspan class="row" x="0" dy="1em" xml:space="preserve">RAGState: answer, metadata</tspan></text></g></g><g transform="translate(453.1562671661377, 1115.2723369598389)" id="flowchart-H1-319" class="node default stateStyle flowchart-label"><rect height="33.285715103149414" width="239.2232208251953" y="-16.642857551574707" x="-119.61161041259766" ry="0" rx="0" style="" class="basic label-container"/><g transform="translate(0, -9.142857551574707)" style="" class="label"><rect/><text style=""><tspan class="row" x="0" dy="1em" xml:space="preserve">RAGState: follow_up_questions</tspan></text></g></g></g></g></g></svg>